<svg width="40" height="26" viewBox="0 0 40 26" fill="none" xmlns="http://www.w3.org/2000/svg">
<path d="M10.3008 7.08643L10.4785 8.30518L10.7388 7.20703L12.5669 0.757812H13.5952L15.3789 7.20703L15.6328 8.32422L15.8296 7.08008L17.2642 0.757812H18.4893L16.2485 10H15.1377L13.2334 3.26514L13.0874 2.56055L12.9414 3.26514L10.9673 10H9.85645L7.62207 0.757812H8.84082L10.3008 7.08643ZM22.3105 10.127C21.3796 10.127 20.6221 9.82227 20.0381 9.21289C19.4541 8.59928 19.1621 7.78044 19.1621 6.75635V6.54053C19.1621 5.85921 19.2912 5.25195 19.5493 4.71875C19.8117 4.18132 20.1756 3.76237 20.6411 3.46191C21.1108 3.15723 21.6187 3.00488 22.1646 3.00488C23.0575 3.00488 23.7515 3.29899 24.2466 3.88721C24.7417 4.47542 24.9893 5.31755 24.9893 6.41357V6.90234H20.3364C20.3534 7.57943 20.5501 8.12744 20.9268 8.54639C21.3076 8.9611 21.79 9.16846 22.374 9.16846C22.7887 9.16846 23.14 9.08382 23.4277 8.91455C23.7155 8.74528 23.9673 8.521 24.1831 8.2417L24.9004 8.80029C24.3249 9.68473 23.4616 10.127 22.3105 10.127ZM22.1646 3.96973C21.6906 3.96973 21.2928 4.14323 20.9712 4.49023C20.6496 4.83301 20.4507 5.31543 20.3745 5.9375H23.8149V5.84863C23.7811 5.25195 23.6203 4.79069 23.3325 4.46484C23.0448 4.13477 22.6554 3.96973 22.1646 3.96973ZM32.1685 6.64209C32.1685 7.69157 31.9272 8.53581 31.4448 9.1748C30.9624 9.80957 30.3149 10.127 29.5024 10.127C28.6349 10.127 27.9642 9.82015 27.4902 9.20654L27.4331 10H26.354V0.25H27.5283V3.88721C28.0023 3.29899 28.6561 3.00488 29.4897 3.00488C30.3234 3.00488 30.9772 3.32015 31.4512 3.95068C31.9294 4.58122 32.1685 5.4445 32.1685 6.54053V6.64209ZM30.9941 6.50879C30.9941 5.70898 30.8397 5.09115 30.5308 4.65527C30.2218 4.2194 29.7775 4.00146 29.1978 4.00146C28.4233 4.00146 27.8669 4.36117 27.5283 5.08057V8.05127C27.888 8.77067 28.4487 9.13037 29.2104 9.13037C29.7733 9.13037 30.2113 8.91243 30.5244 8.47656C30.8376 8.04069 30.9941 7.38477 30.9941 6.50879ZM4.02295 20.8804C2.9777 20.5799 2.21598 20.2118 1.73779 19.7759C1.26383 19.3358 1.02686 18.7941 1.02686 18.1509C1.02686 17.423 1.31673 16.8221 1.89648 16.3481C2.48047 15.87 3.23796 15.6309 4.16895 15.6309C4.80371 15.6309 5.36865 15.7536 5.86377 15.999C6.36312 16.2445 6.74821 16.583 7.01904 17.0146C7.29411 17.4463 7.43164 17.9181 7.43164 18.4302H6.20654C6.20654 17.8716 6.02881 17.4336 5.67334 17.1162C5.31787 16.7946 4.81641 16.6338 4.16895 16.6338C3.56803 16.6338 3.09831 16.7671 2.75977 17.0337C2.42546 17.2961 2.2583 17.6621 2.2583 18.1318C2.2583 18.5085 2.41699 18.828 2.73438 19.0903C3.05599 19.3485 3.59977 19.5854 4.36572 19.8013C5.1359 20.0171 5.73682 20.2562 6.16846 20.5186C6.60433 20.7767 6.92594 21.0793 7.1333 21.4263C7.34489 21.7733 7.45068 22.1816 7.45068 22.6514C7.45068 23.4004 7.15869 24.0013 6.57471 24.4541C5.99072 24.9027 5.20996 25.127 4.23242 25.127C3.59766 25.127 3.00521 25.0063 2.45508 24.7651C1.90495 24.5197 1.47965 24.1854 1.1792 23.7622C0.882975 23.339 0.734863 22.8587 0.734863 22.3213H1.95996C1.95996 22.8799 2.1652 23.3221 2.57568 23.6479C2.9904 23.9696 3.54264 24.1304 4.23242 24.1304C4.87565 24.1304 5.36865 23.9992 5.71143 23.7368C6.0542 23.4744 6.22559 23.1169 6.22559 22.6641C6.22559 22.2113 6.06689 21.8621 5.74951 21.6167C5.43213 21.367 4.85661 21.1216 4.02295 20.8804ZM8.52344 21.5024C8.52344 20.8296 8.65462 20.2244 8.91699 19.687C9.18359 19.1496 9.55176 18.7349 10.0215 18.4429C10.4954 18.1509 11.035 18.0049 11.6401 18.0049C12.5754 18.0049 13.3307 18.3286 13.9062 18.9761C14.486 19.6235 14.7759 20.4847 14.7759 21.5596V21.6421C14.7759 22.3107 14.6468 22.9116 14.3887 23.4448C14.1348 23.9738 13.7687 24.3864 13.2905 24.6826C12.8166 24.9788 12.2707 25.127 11.6528 25.127C10.7218 25.127 9.96647 24.8032 9.38672 24.1558C8.8112 23.5083 8.52344 22.6514 8.52344 21.585V21.5024ZM9.7041 21.6421C9.7041 22.4038 9.87972 23.0153 10.231 23.4766C10.5864 23.9378 11.0604 24.1685 11.6528 24.1685C12.2495 24.1685 12.7235 23.9357 13.0747 23.4702C13.4259 23.0005 13.6016 22.3446 13.6016 21.5024C13.6016 20.7492 13.4217 20.1398 13.062 19.6743C12.7065 19.2046 12.2326 18.9697 11.6401 18.9697C11.0604 18.9697 10.5928 19.2004 10.2373 19.6616C9.88184 20.1229 9.7041 20.783 9.7041 21.6421ZM19.0034 24.1685C19.4224 24.1685 19.7884 24.0415 20.1016 23.7876C20.4147 23.5337 20.5882 23.2163 20.6221 22.8354H21.7329C21.7118 23.229 21.5763 23.6035 21.3267 23.959C21.077 24.3145 20.7427 24.598 20.3237 24.8096C19.909 25.0212 19.4689 25.127 19.0034 25.127C18.0682 25.127 17.3234 24.8159 16.769 24.1938C16.2189 23.5675 15.9438 22.7127 15.9438 21.6294V21.4326C15.9438 20.764 16.0666 20.1694 16.312 19.6489C16.5575 19.1284 16.9087 18.7243 17.3657 18.4365C17.827 18.1488 18.3708 18.0049 18.9971 18.0049C19.7673 18.0049 20.4062 18.2355 20.9141 18.6968C21.4261 19.158 21.6991 19.7568 21.7329 20.4932H20.6221C20.5882 20.0488 20.4189 19.6849 20.1143 19.4014C19.8138 19.1136 19.4414 18.9697 18.9971 18.9697C18.4004 18.9697 17.937 19.1855 17.6069 19.6172C17.2811 20.0446 17.1182 20.6646 17.1182 21.4771V21.6992C17.1182 22.4906 17.2811 23.0999 17.6069 23.5273C17.9328 23.9548 18.3983 24.1685 19.0034 24.1685ZM24.9702 21.8198L24.2339 22.5879V25H23.0596V15.25H24.2339V21.147L24.8623 20.3916L27.0015 18.1318H28.4297L25.7573 21.001L28.7407 25H27.3633L24.9702 21.8198ZM32.3652 25.127C31.4342 25.127 30.6768 24.8223 30.0928 24.2129C29.5088 23.5993 29.2168 22.7804 29.2168 21.7563V21.5405C29.2168 20.8592 29.3459 20.252 29.604 19.7188C29.8664 19.1813 30.2303 18.7624 30.6958 18.4619C31.1655 18.1572 31.6733 18.0049 32.2192 18.0049C33.1121 18.0049 33.8062 18.299 34.3013 18.8872C34.7964 19.4754 35.0439 20.3175 35.0439 21.4136V21.9023H30.3911C30.408 22.5794 30.6048 23.1274 30.9814 23.5464C31.3623 23.9611 31.8447 24.1685 32.4287 24.1685C32.8434 24.1685 33.1947 24.0838 33.4824 23.9146C33.7702 23.7453 34.022 23.521 34.2378 23.2417L34.9551 23.8003C34.3796 24.6847 33.5163 25.127 32.3652 25.127ZM32.2192 18.9697C31.7453 18.9697 31.3475 19.1432 31.0259 19.4902C30.7043 19.833 30.5054 20.3154 30.4292 20.9375H33.8696V20.8486C33.8358 20.252 33.675 19.7907 33.3872 19.4648C33.0994 19.1348 32.7101 18.9697 32.2192 18.9697ZM38.002 16.4688V18.1318H39.2842V19.0396H38.002V23.2988C38.002 23.5739 38.0591 23.7812 38.1733 23.9209C38.2876 24.0563 38.4823 24.124 38.7573 24.124C38.8927 24.124 39.0789 24.0986 39.3159 24.0479V25C39.007 25.0846 38.7065 25.127 38.4146 25.127C37.8898 25.127 37.4941 24.9683 37.2275 24.6509C36.9609 24.3335 36.8276 23.8828 36.8276 23.2988V19.0396H35.5771V18.1318H36.8276V16.4688H38.002Z" fill="black"/>
</svg>
